<?xml version="1.0" encoding="UTF-8" standalone="no"?>
<!-- Generator: Adobe Illustrator 15.0.0, SVG Export Plug-In . SVG Version: 6.00 Build 0)  -->
<svg xmlns:dc="http://purl.org/dc/elements/1.1/" xmlns:cc="http://creativecommons.org/ns#" xmlns:rdf="http://www.w3.org/1999/02/22-rdf-syntax-ns#" xmlns:svg="http://www.w3.org/2000/svg" xmlns="http://www.w3.org/2000/svg" xmlns:sodipodi="http://sodipodi.sourceforge.net/DTD/sodipodi-0.dtd" xmlns:inkscape="http://www.inkscape.org/namespaces/inkscape" version="1.1" id="Switzerland" x="0px" y="0px" width="1248.75" height="799.60699" viewBox="0 0 1248.75 799.607" enable-background="new 0 0 1346.967 863.698" xml:space="preserve" inkscape:version="0.91 r13725" sodipodi:docname="Switzerland_adm_location_map.svg"><metadata id="metadata319"><rdf:RDF><cc:Work rdf:about=""><dc:format>image/svg+xml</dc:format><dc:type rdf:resource="http://purl.org/dc/dcmitype/StillImage"/><dc:title/></cc:Work></rdf:RDF></metadata><defs id="defs317"/><sodipodi:namedview pagecolor="#ffffff" bordercolor="#666666" borderopacity="1" objecttolerance="10" gridtolerance="10" guidetolerance="10" inkscape:pageopacity="0" inkscape:pageshadow="2" inkscape:window-width="1600" inkscape:window-height="837" id="namedview315" showgrid="false" fit-margin-top="0" fit-margin-left="0" fit-margin-right="0" fit-margin-bottom="0" inkscape:zoom="0.63234634" inkscape:cx="994.40112" inkscape:cy="329.29875" inkscape:window-x="-8" inkscape:window-y="-8" inkscape:window-maximized="1" inkscape:current-layer="Switzerland"/><path d="m 826.523,742.631 3.229,-0.022 0.75,-7.063 -4.75,-0.487 -1.5,7.307 2.271,0.265 z m -64.924,-696.23 -1.104,0.113 -2.406,0.247 -2.543,-1.217 -1.947,-0.133 -5.348,2.41 0.139,-2.083 0,-3.085 -2.723,-3.084 0.703,-2.653 5.537,0.686 4.482,-1.028 1.408,3.681 2.846,3.77 0.956,2.376 z m 209.426,258.073 -1.346,-2.621 -0.373,-0.737 -0.504,-0.97 -0.168,-0.324 -0.307,-0.602 0.13,-0.37 0.36,-1.027 0.122,-0.356 2.069,-2.243 6.52,-4.709 2.711,-2.712 0.68,-2.085 0.191,-0.581 0.023,-0.323 0.029,-0.335 0.168,-2.197 -2.283,-9.229 -1.092,-4.386 -0.441,-1.003 -3.918,-9.296 -0.198,-0.569 -0.153,-0.435 -0.107,-0.625 -0.617,-3.683 0.084,-5.144 4.307,-15.958 7.521,-16.739 3.299,-3.727 -0.154,-0.646 0.826,-0.101 3,-7.678 1.307,-1.773 0.404,-0.547 4.551,-3.102 2.192,-3.36 0.548,-3.304 2.391,-5.635 5.139,-8.615 0.678,-1.135 c 0,0 5.536,-0.099 7.295,-0.442 1.76,-0.343 3.428,-1.117 4.834,-3.084 1.407,-1.968 2.111,-4.799 0,-6.766 -2.109,-1.968 -4.218,-2.438 -4.218,-2.438 l 0.948,-4.735 -1.213,-7.208 -0.223,-1.306 0.588,-3.403 1.283,-2.366 0.328,-0.602 -0.824,-1.004 -1.963,-2.389 -1.756,-0.167 -3.566,-0.803 -3.855,-3.794 -0.932,-0.078 -1.543,1.496 -1.473,0.211 -2.26,-2.354 -1.826,-3.917 -2.832,-3.169 -1.961,-2.596 -0.491,0.074 -1.435,-1.373 -0.727,-0.702 -1.328,3.415 -2.184,2.064 -2.748,1.238 -9.607,0.803 -4.283,-1.483 -1.137,-1.54 -6.178,-3.828 -3.734,-3.347 -0.596,-0.524 -2.504,-0.502 1.273,-1.038 0.245,-1.563 -0.237,-0.356 -0.617,-0.915 -3.102,-1.853 -1.488,-0.902 -5.559,-4.944 -1.871,-0.972 -2.383,-3.257 -0.42,-2.567 0.84,-4.418 -1.168,-2.455 -14.149,-7.99 -6.956,-6.239 -7.086,-4.764 -5.33,-1.908 -3.566,-2.132 -3.924,-1.205 -4.246,-3.403 -5.23,-1.72 -2.268,-1.874 c 0,0 -0.66,-1.357 -0.598,-1.357 l -4.615,1.559 -3.427,-2.741 -2.792,-2.271 -2.329,-0.59 -3.935,-1.595 -7.295,-4.025 -11.52,-1.028 -4.834,-2.057 -5.275,0 -10.021,6.169 -9.759,5.052 c 0,0 -9.055,3.084 -11.87,3.338 -2.813,0.254 -6.944,-3.681 -6.944,-3.681 l -2.723,-7.451 -3.869,-1.028 1.055,-2.742 -1.76,-2.653 5.629,-0.686 -0.703,-4.456 -5.98,0 -2.723,-2.653 -4.223,1.371 -0.703,-4.112 -2.371,-2.399 1.315,-2.31 -3.778,-5.142 -2.814,3.771 2.111,2.996 -2.463,0.343 -4.834,4.798 0.703,3.339 5.891,0.685 2.464,4.109 -1.76,1.028 -1.408,4.367 -0.11,1.547 -2.804,-0.547 -4.543,-3.359 -3.459,-0.892 -4.682,-1.195 -2.234,0.229 0.426,-2.207 1.055,-8.479 -4.13,-1.029 -2.463,-3.338 0,-3.77 3.69,-2.507 4.662,-1.86 -5.89,-6.169 -5.276,2.742 -4.225,-1.968 -0.258,-4.455 -0.704,-3.771 -4.481,-2.996 -1.76,-3.77 -2.461,2.399 -0.354,4.024 1.408,4.113 -1.055,3.681 -6.594,3.77 0,-3.427 -2.111,-1.282 1.407,-3.427 -1.759,-3.427 0.352,-4.709 -2.723,-2.399 -7.035,0.343 -3.428,-2.311 -1.407,5.396 2.815,1.714 0.703,3.681 -2.814,0.686 -4.834,-1.028 -5.277,1.371 -3.074,2.399 -2.463,-1.714 -6.24,2.057 -4.223,4.366 -2.371,3.428 -2.463,5.052 0.704,3.084 -0.351,2.996 -4.574,4.456 -5.538,1.027 -3.517,4.367 3.166,1.713 2.109,3.681 -1.055,2.742 -3.518,1.029 1.406,4.023 2.814,-0.685 2.814,2.056 3.778,3.085 3.87,-0.343 0,4.024 5.186,2.056 -0.703,-3.427 3.166,1.027 c 0,0 2.723,-1.027 4.834,-1.371 2.11,-0.343 6.592,1.371 6.592,1.371 l -0.703,-6.08 9.408,-3.681 1.055,2.653 3.166,0.342 3.074,-2.996 5.551,-0.748 0.109,1.295 0.023,0.291 2.039,4.955 1.357,3.302 -0.68,2.132 -1.633,1.238 -2.322,-0.211 0.748,-2.768 -0.213,-2.188 -2.84,2.366 -0.75,2.956 2.314,9.106 -0.572,2.499 -2.115,3.828 -0.107,1.405 -0.1,0.982 -1.24,0.998 -2.162,-0.769 -6.111,-1.894 3.166,-5.738 -4.572,-4.113 -3.428,-0.342 -0.703,-2.399 -4.834,-0.254 -1.407,2.653 -2.11,3.084 -7.297,1.713 -2.111,4.024 -3.426,2.056 2.723,4.367 4.926,-1.371 2.213,3.158 -2.542,0.751 -0.733,0.212 -3.305,0.971 -5.062,1.261 -2.773,0.256 -2.092,1.082 -1.664,0.135 -0.688,-0.213 -3.803,-1.204 -1.039,-0.524 -2.451,-1.395 -1.48,0.144 -3.139,3.213 -3.223,0.648 -5.199,-0.391 -5.33,-1.384 -1.001,-0.558 -0.679,-0.368 -1.154,-0.637 -3.771,-4.753 -3.398,-1.997 -0.519,-1.54 0.358,-3.135 -1.451,-1.887 -2.45,-1.104 -4.712,0.424 -3.161,-2.833 -1.315,0.138 c 0,0 -0.875,0.853 -1.375,1.096 -0.5,0.244 -1.875,0.609 -3.375,1.096 -1.5,0.487 -2.625,-0.609 -3.5,-2.923 -0.875,-2.313 -4.375,-1.218 -5.25,-0.609 -0.875,0.609 -3,3.654 -3.5,4.263 -0.5,0.609 -2.125,2.801 -4,3.897 -1.875,1.096 -6,2.436 -7.625,2.679 -1.625,0.243 -4.314,2.961 -4.314,2.961 l -1.428,0.98 -4.244,0.514 -1.787,1.797 -2.176,6.505 -1.17,1.05 -1.664,0.144 -3.444,-1.595 -2.206,-1.05 -1.139,0.279 -0.609,0.146 -2.383,3.213 -1.611,0.57 -0.375,0.133 -3.336,0.77 -3.474,1.217 -2.131,-0.011 -2.855,-2.098 -1.879,-0.581 -2.855,0.38 -4.283,0.055 -3.398,0.034 -0.718,0.67 -1.023,2.421 -0.985,0.871 -2.03,0.257 -3.376,-1.071 -2.756,-1.831 -0.802,-1.629 -0.413,-2.934 -0.16,-1.126 -0.344,-2.455 -0.099,-0.692 -1.703,-3.425 -0.771,-0.615 -0.551,-0.167 -2.359,-0.737 -2.787,-0.267 -10.209,2.12 -3.016,-1.35 -1.581,-0.034 -2.359,1.194 -0.222,1.474 -1.092,2.8 -2.474,3.002 -1.513,1.83 -1.527,1.071 -2.03,0.669 -1.97,0.615 -0.199,0.066 -3.803,1.162 -1.436,0.323 -0.396,0.089 -11.264,2.544 -1.244,0.714 -4.521,3.114 -3.864,0.704 -2.527,-0.725 -1.962,-1.753 -1.841,-1.65 -2.443,-2.188 -1.656,-1.483 -1.139,-1.016 -0.519,-0.881 -0.481,-0.815 -0.681,-0.565 1.983,-1.532 4.25,0.73 1.75,-1.949 3.75,0.244 c 0,0 2.5,-1.218 2.75,-2.679 0.25,-1.461 -0.5,-3.166 -0.5,-3.166 l -2.25,-3.167 4,-2.923 3.25,-3.166 -3.75,0.73 -5.5,2.923 -5.25,-0.974 -5.5,7.063 -5.5,0.731 -0.75,-4.141 -4.25,-0.731 -1.25,5.602 -3.5,-0.487 -2.5,0.974 -1.75,4.627 -4,1.218 -6,6.333 -3,0 -3.25,3.166 1.25,2.923 3,0 2.5,-1.218 2.75,2.679 -2,3.897 -2.5,-0.487 -4.25,0 2.5,1.705 0.25,2.679 1.25,3.41 -1.75,1.218 -2.25,2.679 -2.25,2.923 -5,0.487 -10.75,-6.82 -3,5.602 8.75,3.653 -2.25,4.628 -4.25,1.461 -1.75,3.41 -4.75,5.115 c 0,0 -1.5,0.975 -3.5,1.218 -2,0.243 -2.5,2.192 -2.5,2.192 l -2.75,-1.705 -6,0 c 0,0 -1.75,0 -3,-1.705 -1.25,-1.705 -4.25,-0.73 -4.25,-0.73 l -7,1.218 c 0,0 -3.75,1.705 -5.25,1.705 -1.5,0 -2.5,1.705 -4.25,2.192 -1.75,0.487 -6,3.41 -6,3.41 l 0.25,-2.679 -3,-0.975 c 0,0 0.25,-0.73 0.25,-2.192 0,-1.462 -2,-2.679 -3.75,-2.192 -1.75,0.487 -3.5,1.705 -3.5,1.705 l -4.25,0 -0.25,-1.461 -2.75,-1.218 -4.25,-0.487 2,-6.089 0.75,-5.845 2.25,-4.628 1.5,-3.41 -9.25,0.73 -5.25,-4.871 -3.5,0 -2.5,2.923 -5.75,0.243 c 0,0 -0.75,0.244 -3.5,1.705 -2.75,1.461 -3.5,-1.461 -3.5,-1.461 l -4,-0.487 -2.5,-1.218 -3.25,-0.243 -4.5,-1.705 -4.75,2.192 -3,2.192 0,6.333 3,2.679 -0.25,3.167 0.5,2.436 c 0,0 -3,2.679 -4.75,2.679 -1.75,0 -4.5,1.218 -4.5,1.218 l -0.5,2.679 -1.75,2.192 -4.75,0.244 -0.25,7.307 -1.5,3.897 -5.25,1.218 -1.25,3.653 c 0,0 0,2.192 -0.75,3.167 -0.75,0.974 -4.25,1.705 -4.25,1.705 l -3,3.167 -0.5,3.167 -1.25,3.166 c 0,0 3,-0.73 4.5,-1.218 1.5,-0.488 2,-1.218 4,-0.244 2,0.975 1.75,1.705 4.25,0.975 2.5,-0.731 2.75,-0.731 4.5,-0.731 1.75,0 8.5,-0.974 8.5,-0.974 l 2.75,-1.461 4.25,0 4.25,-3.167 5.25,0.975 1.25,2.679 3.25,0.73 1.25,4.384 2.75,4.141 -2,4.141 -2.25,2.679 -6.5,0 -2.5,2.922 -2.5,4.628 0.75,2.436 -3.25,1.949 -3.25,0.73 -2.75,1.705 -6.5,-0.244 -1.5,2.192 1.75,4.141 0,5.846 -1,2.679 2.25,2.192 0,2.679 -3,1.461 -0.75,2.923 -3,0.73 -1.5,3.167 -4.25,1.461 -2.75,2.923 -6,3.897 -2,4.871 -2.618,2.321 -5.382,2.551 -0.25,3.166 3.337,0.072 -1.837,4.312 -7,5.358 -7,4.871 -5.75,3.41 -4.5,0.487 -5.5,5.115 1.75,1.705 -0.25,5.846 -6.5,0 -3.25,1.705 -1,4.14 -4.75,3.41 6.5,2.679 0.75,3.897 -3,1.461 -2.5,3.897 -4,0 -6.75,4.384 -3.5,5.845 -0.25,2.436 0,2.436 c 0,0 -4.75,3.653 -6,4.384 -1.25,0.731 -6.5,0.975 -6.5,0.975 l -5.5,2.922 -18.75,7.063 -3,-2.679 -6.75,7.551 -3,5.115 -6.5,5.602 3,4.384 5,8.769 -1.5,17.78 -5.5,9.499 c 0,0 0.5,3.897 -1.25,5.846 -1.75,1.948 0.25,3.41 2.25,4.871 2,1.461 5,3.167 5,3.167 l -2.75,7.794 -3.25,4.141 -3.5,3.167 c 0,0 -6.5,2.192 -7.75,2.679 -1.25,0.487 -2.25,2.192 -2.5,4.14 -0.25,1.949 -3.25,3.41 -3.25,3.41 l -27,15.101 -3.25,2.922 -0.75,3.167 -10.75,10.473 -13,10.473 -1.25,2.923 -12,8.038 -5,6.089 5.25,7.063 7,7.308 -4.75,6.332 -2.5,-0.975 -5,6.09 -4.75,13.152 -6,5.602 -0.75,4.871 2.75,2.192 0.5,3.653 -5.25,8.525 8.25,2.922 1.25,3.166 2.5,0.975 9.75,8.769 2,-1.462 5,5.359 -8,13.396 -5.75,8.524 -1,7.551 -4.75,5.846 2.5,1.948 0.5,2.679 2.25,1.949 0.75,5.358 -2.25,3.653 -3.75,1.705 -4.5,-2.68 -7.5,1.219 -3.25,4.383 -4,-2.436 -5.25,3.41 -4.75,4.628 -5.5,0.731 -1.75,7.307 6.25,3.896 -2.25,2.436 -2.5,0.487 -5,10.717 -0.5,3.41 4.25,5.358 4,-4.871 9.5,0.243 3.25,2.436 4.5,-2.192 1,-3.652 7,0.486 2.75,-0.244 4.75,2.68 4,-0.243 3.25,1.461 10.5,-8.28 4,-0.975 1.25,-7.307 11.75,-9.743 4,0.731 2.5,-1.949 c 0,0 4.5,-1.705 5.5,-2.436 1,-0.731 5.75,-3.896 5.75,-3.896 l 4,-6.576 -0.5,-4.385 -2.75,0 -1.5,-2.923 -5.75,5.114 -3.25,-0.486 -5.75,-11.935 3,-4.384 -3.25,-6.333 -4.75,-2.923 8.5,-18.998 23.5,-18.023 23.25,-4.385 28,-16.562 42.25,0.975 38.5,11.936 -3.5,12.421 -0.25,8.038 c 0,0 -2.25,3.41 -4,4.141 -1.75,0.731 -5,2.436 -5,2.436 l 4,9.012 2.25,-0.487 2,2.679 0,2.436 4,1.705 4.5,4.141 0.25,2.68 c 0,0 1.25,0.73 3,2.191 1.75,1.462 2.5,0.488 2.5,0.488 l 4.5,4.384 -3.25,12.909 -3.5,2.679 -2.5,5.358 -3,0.975 -0.75,4.141 c 0,0 -1.25,1.461 -1.75,2.679 -0.5,1.218 -1.75,5.114 -1.75,5.114 l 1.25,8.281 -3.25,4.871 c 0,0 -2.25,2.924 -2.5,4.385 -0.25,1.461 2.25,7.551 2.25,7.551 l 2.5,-0.487 1,2.436 2.25,-0.731 6.25,0 1.75,2.193 14.25,1.705 -1,8.037 -2.75,3.41 1.75,4.384 -0.5,5.114 -2.75,2.68 -1.25,5.846 3.25,1.948 2.5,-2.192 2.75,-0.974 3.25,-5.603 5.25,1.219 -1,3.166 1.5,1.948 2.435,-1.752 4.315,9.546 4.75,5.602 1,3.897 2.5,3.166 3,-0.243 1.75,5.114 3.75,4.385 -4.25,2.923 2.75,4.141 4.5,0.974 1,1.949 -0.25,6.819 1.25,5.115 6.5,4.627 0.5,4.141 2.25,2.436 0.5,2.923 c 0,0 3.75,1.949 4.75,2.923 1,0.975 0.75,2.436 0.75,3.653 0,1.217 1.25,3.897 1.25,3.897 0,0 3.25,0.243 5.75,-0.975 2.5,-1.218 3.25,-4.384 3.25,-4.384 l 7.5,-2.68 3,5.115 c 1,1.705 6.75,2.436 6.75,2.436 l -0.75,-4.871 4.75,-4.141 2,-3.41 10.25,-0.487 4,-3.409 2.75,-7.308 7.5,2.192 1.75,2.923 4.75,-1.948 4.75,1.218 0.25,2.679 7.25,2.923 4.75,-5.358 2.5,0.73 5.25,-3.409 4.75,-5.846 6.25,-0.73 0.75,-5.358 6.75,-5.115 5.75,-0.243 6.5,2.436 0,-7.308 2.25,-4.384 7.75,-0.975 1.75,3.654 0.5,2.923 16.25,0.243 c 0,0 3,-3.166 5.75,-2.192 2.75,0.975 4,3.897 4,3.897 l 0.75,3.896 4.75,0.731 3.75,2.679 0.25,5.846 1.75,3.41 4.25,0.486 3.75,-6.089 5.75,0.487 5.25,4.384 3.75,3.897 5.25,-3.41 c 0,0 4.5,1.462 5.75,1.705 1.25,0.243 6.5,1.705 6.5,1.705 l 3,-2.192 c 0,0 -3.5,-4.141 -2,-6.576 1.5,-2.435 1.75,-5.846 1.75,-5.846 l 1.25,-7.55 c 0,0 3.5,-1.705 5,-3.653 1.5,-1.949 3.5,-6.333 3.5,-6.333 l 15.5,0.243 5.75,-0.243 0.766,-1.461 1.234,-4.872 3,-0.73 0.5,-7.551 5,-5.358 c 0,0 -2.5,-4.141 -2.5,-7.062 l 0,-5.359 1.5,-2.436 1.5,-7.793 7.25,-0.731 3.5,-1.462 5.5,-0.486 4,-1.949 2,-2.191 -0.25,-4.385 4.75,-3.166 3.75,0 3.25,-4.627 -2.25,-2.192 c 0,0 0.75,-3.897 1.75,-5.114 1,-1.219 3.25,-4.385 3.25,-4.385 l -2.5,-4.385 -3.25,-7.307 0.25,-3.166 -9,-8.281 0,-3.653 -8.5,-3.167 0.5,-4.627 9,-8.037 2.25,-3.654 5.25,-3.896 2.5,0.486 4,2.192 5.25,-1.462 c 0,0 2,-0.974 3.25,-0.974 1.25,0 2.25,-0.73 2.25,-0.73 l 2.25,-2.192 2.5,-5.115 0.5,-3.409 3.25,-3.653 4.25,0 c 0,0 0,-1.949 1.75,-2.436 1.75,-0.487 2.25,-1.949 2.25,-1.949 l -0.75,-2.679 0.75,-1.705 3.5,-2.192 3.25,0.73 3.75,-3.409 3,-1.218 0.25,-7.551 -6.25,-3.166 4.5,-8.037 4.5,0 7.75,-6.334 4.75,-4.871 7.25,0.244 6.5,-3.166 7.25,-1.705 2,0.486 1.75,1.462 0,2.436 c 0,0 2.25,0.487 3,2.436 0.75,1.949 0.5,4.872 0.5,4.872 l -1.75,0.486 0.25,6.09 2.5,2.679 -0.5,2.192 -1,2.191 2,2.192 -0.25,2.192 -1.75,1.461 1.5,12.422 -2.25,1.948 1.5,8.769 -7,7.794 -0.25,4.384 -1.75,0 c 0,0 -1,3.41 0.5,5.846 1.5,2.436 4,4.871 4,4.871 l 1.5,4.628 -2.25,1.218 -1.5,2.436 3.75,1.949 2.25,1.705 1.25,3.896 4,0.73 4.5,1.461 3.25,1.949 5,0.975 2.723,7.471 3.527,4.951 3.75,3.166 4,6.089 2.5,3.653 2.25,0.487 0.25,6.819 3.25,3.41 1,3.41 8.75,0 3.75,4.627 4.5,0 2,3.41 6.5,1.219 8.25,-10.961 5.75,9.986 3,0.975 5,2.436 3,-0.244 2.75,-2.191 8,7.307 4.75,3.166 0.5,2.923 -0.5,3.653 -2,4.871 -3,-0.243 c 0,0 -2,6.332 -2.25,7.55 -0.25,1.218 -1.75,2.192 -3,2.68 -1.25,0.488 -2.5,0.487 -2.5,0.487 l -4,6.576 -0.75,3.409 11.5,2.436 3.5,3.41 3.75,4.385 4.5,6.089 4.25,0 c 0,0 -0.5,4.141 0.75,6.576 1.25,2.435 6,8.524 6,8.524 l 3.5,5.603 0,3.653 1.25,2.679 0.75,5.115 2.5,3.409 -4.5,5.603 -2.5,3.653 -1,3.897 5.25,-0.244 1.75,-2.923 5.5,-0.73 3,3.41 4.75,-1.705 2.5,2.436 0,2.679 3,2.192 2.516,0.73 1.234,-2.679 1.75,-5.358 2.75,-3.41 0,-3.896 2.75,-7.551 3.5,-0.975 4,-5.845 -2.5,-5.115 -5.25,-5.602 -2.5,0 -1.25,-2.437 -6.25,-1.218 1,-2.679 -2.75,-2.192 0.5,-5.602 -6.25,-5.115 1.5,-4.384 3.75,-0.73 0.25,-2.192 3.25,-0.73 0.75,-4.628 -2.5,-7.307 -3.25,-5.115 2,-3.653 1.75,-3.897 8.25,-5.358 4.5,0.731 3.5,-1.462 0,-3.409 3.25,-3.897 -4.5,-11.69 0.25,-2.68 5,-2.436 2.75,-2.68 5.25,-2.191 2.5,-4.871 4.75,-4.385 2.75,-0.975 1,-3.652 6.75,-0.488 1.25,-1.948 3.25,-12.665 4.25,-2.923 1.5,-1.948 0.5,-3.41 3,-1.705 3,-0.244 1.5,-12.908 2.75,-1.705 0,-3.653 2.5,-1.705 1,-2.436 2.5,-3.166 0,-5.358 2.5,-2.68 0.25,-6.089 1.25,-5.358 -4.75,-4.385 -1,-5.845 2,-5.114 -1.75,-4.141 0.75,-5.603 -5.25,-4.628 -3.5,-4.627 0,-7.064 4.75,-0.73 2,-2.679 1,-11.448 1.5,-3.652 9.75,-4.141 11,0 2.25,-1.219 3.5,1.705 0,3.166 -1.25,1.705 4.5,4.385 1,3.166 5,2.68 3.5,-3.654 0.25,-6.332 4,-3.41 6.75,-2.922 0.75,3.896 -0.75,5.846 1,7.307 -1.25,2.68 -1.75,15.588 2.25,2.922 2,10.23 -2.25,3.896 8.5,3.897 2.5,2.436 3.25,10.474 2.5,5.357 6.25,6.82 3.25,-0.73 3,1.948 4,1.948 6.75,0.244 3,2.922 6,0 10,-5.846 2.5,2.68 4.5,1.949 2.5,-0.73 1,-4.385 2.5,-4.628 -2.5,-1.948 0,-2.436 2,-3.41 0,-2.68 3.25,-3.896 3,0 3,2.191 1,2.437 4,1.461 4,-2.923 5,-0.975 4.25,-2.922 3,-3.166 3.25,-1.462 6.5,0.243 3.75,-1.461 0.5,-2.68 6.5,-2.922 6,4.871 c 0,0 1,-2.68 2.75,-3.166 1.75,-0.488 5.75,-0.975 5.75,-0.975 l 0.5,2.922 3,4.141 4.25,2.68 2.75,0.487 0.25,5.358 -3.75,7.551 3.5,2.191 c 0,0 2.5,4.141 2,6.09 -0.5,1.948 -1.25,5.846 -1.25,5.846 l 7.25,2.436 8.75,5.114 c 0,0 3,2.436 2.75,5.358 -0.25,2.922 -0.75,6.82 -0.75,6.82 l -2,3.166 4.5,3.653 c 0,0 2.75,-5.358 7.75,-3.897 5,1.462 6.75,1.705 6.75,1.705 l 4.25,-1.218 10,-10.229 -0.5,-3.896 -3.25,-1.949 -0.25,-4.384 -2.5,-0.975 0.25,-3.653 -2.75,-0.486 -1.75,-3.41 -5.25,-3.897 -1.5,-4.628 -2.5,-4.384 1,-7.794 5.25,-3.654 0,-7.062 5.75,-3.896 4.25,0.974 c 0,0 0.25,-2.192 0.25,-3.897 0,-1.705 -0.5,-6.089 -0.5,-6.089 l -3.25,0.731 -1,-3.654 -1.5,-2.922 -3.5,-0.244 -4,1.218 -1.25,1.705 -7.5,-0.243 -1.5,-1.949 -2.75,0 -3.25,-5.358 -4,-1.704 0.5,-4.872 3,-3.166 -2.5,-4.628 0,-14.127 2.25,-2.436 -0.25,-5.846 -2,-1.461 0.5,-3.41 4.75,-2.436 2.75,-5.115 2.75,-1.705 -2,-2.191 0.5,-3.166 4.75,-0.487 1.25,-2.679 -0.25,-7.308 1.75,-3.166 7.5,1.948 2.75,-2.436 6.75,-1.705 4.5,-4.141 8.5,2.679 1.75,-3.41 6.5,-2.923 0.75,5.358 4.75,5.602 -4.75,8.768 2,6.819 3.75,-3.166 7.25,3.654 1.75,2.679 0.75,4.871 7.25,-0.73 4.25,4.141 2.5,-5.846 4.25,0 8,4.384 5.75,-2.436 9.75,6.09 4.5,-3.41 1.25,-4.141 -0.5,-3.41 2.25,-5.358 1,-3.653 0.5,-9.743 -3.75,-6.089 -5.066,-4.512 -9.934,0.615 -1.5,2.192 -3.25,-1.461 c 0,0 -0.75,-2.436 -1.25,-4.141 -0.5,-1.705 -1.5,-3.897 -1.5,-3.897 0,0 0.25,-5.845 -1,-8.038 -1.25,-2.192 -2,-4.384 -2,-4.384 l 4.25,-5.115 2,-3.41 2.25,0.244 c 0,0 1.5,-3.167 0,-5.602 -1.5,-2.435 -3,-4.141 -3,-4.141 l 0,-3.41 c 0,0 2.75,-2.436 5.25,-3.654 2.5,-1.218 5.5,-4.384 5.5,-4.384 l -0.25,-5.846 -4.5,-5.358 1,-5.846 3.75,0.244 2.5,-3.897 1.5,-7.794 2.25,-6.333 2.75,-3.41 1.75,-1.461 -1,-5.358 -2,-5.358 1.5,-5.602 2,-5.602 2,-3.41 1,-7.063 -2,-3.166 -6.75,-4.871 -6.5,-1.218 -3.25,-2.436 -0.5,-3.653 -6,-5.115 -0.5,-1.949 -3.25,-1.948 -3.25,3.653 -6,0 -4,6.82 -1,3.167 -1,1.705 -0.5,3.41 -3,1.461 -1.25,4.384 1.5,2.192 0.25,3.653 -3.25,-0.487 -2.25,1.949 -6,-2.436 -9.25,-1.705 -1.75,8.038 -2.5,6.089 1.75,3.167 -0.5,9.012 -7.25,0.244 -3.5,0 -3.5,4.871 -7.25,3.167 -0.5,-2.192 -7.5,1.461 -2.25,1.948 -5,0.244 0,-1.949 -2.75,-1.461 -0.25,-3.41 -10.25,-1.705 0.5,-4.627 -7.25,-7.551 -3.25,-1.948 -3.631,-0.569 -5.629,-2.056 -2.109,-5.053 -3.779,1.625 -6.241,-0.343 -6.944,-2.996 -9.406,-5.141 -3.168,-12.503 5.539,-9.165 -0.262,-4.366 -4.572,-2.742 0,-2.742 1.406,-2.996 -3.869,-1.028 -2.371,2.399 -5.629,1.625 -3.428,-3.338 -3.518,-1.028 -4.129,-2.742 -2.814,-3.338 -5.891,1.371 -4.573,-0.686 -1.667,-2.399 -6.333,-0.685 -3.427,-2.399 -4.573,-0.939 -2.371,-2.741 -7.296,1.37 -4.223,2.653 -3.426,0 -4.926,-3.681 -7.295,2.057 -4.131,2.31 -3.167,-0.343 -1.056,-2.996 -2.461,-2.399 -6.242,2.399 -8.352,1.371 -1.011,0.153 z" id="path5" style="clip-rule:evenodd;fill:#d52b1e;fill-opacity:1;fill-rule:evenodd" inkscape:connector-curvature="0"/><path inkscape:connector-curvature="0" d="m 564.375,122.60699 0,140 -140,0 0,120 140,0 0,140 120,0 0,-140 140,0 0,-120 -140,0 0,-140 -120,0 z" id="rect6" style="fill:#ffffff"/></svg>