<?xml version="1.0" encoding="UTF-8" standalone="no"?>
<!-- Created with Inkscape (http://www.inkscape.org/) -->

<svg
   xmlns:dc="http://purl.org/dc/elements/1.1/"
   xmlns:cc="http://creativecommons.org/ns#"
   xmlns:rdf="http://www.w3.org/1999/02/22-rdf-syntax-ns#"
   xmlns:svg="http://www.w3.org/2000/svg"
   xmlns="http://www.w3.org/2000/svg"
   xmlns:sodipodi="http://sodipodi.sourceforge.net/DTD/sodipodi-0.dtd"
   xmlns:inkscape="http://www.inkscape.org/namespaces/inkscape"
   width="14.343802mm"
   height="14.340331mm"
   viewBox="0 0 14.343802 14.340331"
   version="1.1"
   id="svg5041"
   inkscape:version="0.92.3 (2405546, 2018-03-11)"
   sodipodi:docname="circle.svg">
  <defs
     id="defs5035" />
  <sodipodi:namedview
     id="base"
     pagecolor="#ffffff"
     bordercolor="#666666"
     borderopacity="1.0"
     inkscape:pageopacity="0.0"
     inkscape:pageshadow="2"
     inkscape:zoom="1.4"
     inkscape:cx="223.10491"
     inkscape:cy="-181.72912"
     inkscape:document-units="mm"
     inkscape:current-layer="layer1"
     showgrid="false"
     inkscape:window-width="1920"
     inkscape:window-height="1012"
     inkscape:window-x="-8"
     inkscape:window-y="-8"
     inkscape:window-maximized="1" />
  <metadata
     id="metadata5038">
    <rdf:RDF>
      <cc:Work
         rdf:about="">
        <dc:format>image/svg+xml</dc:format>
        <dc:type
           rdf:resource="http://purl.org/dc/dcmitype/StillImage" />
        <dc:title></dc:title>
      </cc:Work>
    </rdf:RDF>
  </metadata>
  <g
     inkscape:label="Layer 1"
     inkscape:groupmode="layer"
     id="layer1"
     transform="translate(182.55286,-7.8595963)">
    <g
       id="g5053">
      <path
         style="fill:#ef4135;stroke-width:0.26458332"
         inkscape:connector-curvature="0"
         id="path4945"
         d="m -170.5805,9.6984077 c -2.93688,-2.6458333 -7.48771,-2.4077083 -10.13354,0.5291663 -2.64584,2.936875 -2.40771,7.487709 0.52916,10.133542 2.93688,2.645833 7.48771,2.407708 10.13355,-0.529167 2.43416,-2.69875 2.46062,-6.799791 0.0529,-9.525 -0.18521,-0.211666 -0.39687,-0.3968746 -0.58208,-0.6085413"
         class="st2" />
      <polygon
         style="fill:#ffffff"
         id="polygon4951"
         points="159.9,32.6 159.9,22.4 148,22.4 148,10.6 137.7,10.6 137.7,22.4 125.8,22.4 125.8,32.6 137.7,32.6 137.7,44.4 148,44.4 148,32.6 "
         class="st3"
         transform="matrix(0.26458333,0,0,0.26458333,-213.17842,7.8727827)" />
    </g>
  </g>
</svg>
