<?xml version="1.0" encoding="UTF-8" standalone="no"?>
<!-- Created with Inkscape (http://www.inkscape.org/) -->

<svg
   xmlns:dc="http://purl.org/dc/elements/1.1/"
   xmlns:cc="http://creativecommons.org/ns#"
   xmlns:rdf="http://www.w3.org/1999/02/22-rdf-syntax-ns#"
   xmlns:svg="http://www.w3.org/2000/svg"
   xmlns="http://www.w3.org/2000/svg"
   xmlns:sodipodi="http://sodipodi.sourceforge.net/DTD/sodipodi-0.dtd"
   xmlns:inkscape="http://www.inkscape.org/namespaces/inkscape"
   width="64.774376mm"
   height="13.328473mm"
   viewBox="0 0 64.774376 13.328473"
   version="1.1"
   id="svg795"
   inkscape:version="0.92.3 (2405546, 2018-03-11)"
   sodipodi:docname="swiss_space_center_black_font.svg">
  <defs
     id="defs789">
    <clipPath
       clipPathUnits="userSpaceOnUse"
       id="clipPath593">
      <path
         d="m 320.315,721.724 h 184.714 v 37.782 H 320.315 Z"
         id="path591"
         inkscape:connector-curvature="0" />
    </clipPath>
  </defs>
  <sodipodi:namedview
     id="base"
     pagecolor="#ffffff"
     bordercolor="#666666"
     borderopacity="1.0"
     inkscape:pageopacity="0.0"
     inkscape:pageshadow="2"
     inkscape:zoom="0.35"
     inkscape:cx="-90.448866"
     inkscape:cy="-80.526626"
     inkscape:document-units="mm"
     inkscape:current-layer="layer1"
     showgrid="false"
     inkscape:window-width="1920"
     inkscape:window-height="1012"
     inkscape:window-x="-8"
     inkscape:window-y="-8"
     inkscape:window-maximized="1" />
  <metadata
     id="metadata792">
    <rdf:RDF>
      <cc:Work
         rdf:about="">
        <dc:format>image/svg+xml</dc:format>
        <dc:type
           rdf:resource="http://purl.org/dc/dcmitype/StillImage" />
        <dc:title></dc:title>
      </cc:Work>
    </rdf:RDF>
  </metadata>
  <g
     inkscape:label="Layer 1"
     inkscape:groupmode="layer"
     id="layer1"
     transform="translate(-16.749715,-114.19886)">
    <g
       transform="matrix(0.35277777,0,0,-0.35277777,-96.63891,382.13569)"
       id="g587">
      <g
         id="g589"
         clip-path="url(#clipPath593)">
        <g
           id="g595"
           transform="translate(363.5628,728.5881)">
          <path
             d="M 0,0 C 0,-3.617 -2.931,-6.548 -6.548,-6.548 H -30.92 c -3.614,0 -6.545,2.931 -6.545,6.548 v 24.371 c 0,3.616 2.931,6.548 6.545,6.548 H -6.548 C -2.931,30.919 0,27.987 0,24.371 Z"
             style="fill:#ed1c24;fill-opacity:1;fill-rule:nonzero;stroke:none"
             id="path597"
             inkscape:connector-curvature="0" />
        </g>
        <g
           id="g599"
           transform="translate(349.4366,745.3828)">
          <path
             d="m 0,0 -4.281,-3.67 0.028,-5.85 4.267,4.06 z"
             style="fill:#ffffff;fill-opacity:1;fill-rule:nonzero;stroke:none"
             id="path601"
             inkscape:connector-curvature="0" />
        </g>
        <g
           id="g603"
           transform="translate(345.9059,741.5034)">
          <path
             d="M 0,0 C 0.01,-0.003 0.02,-0.007 0.029,-0.011"
             style="fill:none;stroke:#ffffff;stroke-width:0.80299997;stroke-linecap:round;stroke-linejoin:round;stroke-miterlimit:4;stroke-dasharray:none;stroke-opacity:1"
             id="path605"
             inkscape:connector-curvature="0" />
        </g>
        <g
           id="g607"
           transform="translate(347.4123,740.9429)">
          <path
             d="M 0,0 C 8.188,-3.047 8.943,-3.328 19.198,-7.128"
             style="fill:none;stroke:#ffffff;stroke-width:0.80299997;stroke-linecap:round;stroke-linejoin:round;stroke-miterlimit:4;stroke-dasharray:0.061, 1.575;stroke-dashoffset:0;stroke-opacity:1"
             id="path609"
             inkscape:connector-curvature="0" />
        </g>
        <g
           id="g611"
           transform="translate(367.347,733.5409)">
          <path
             d="M 0,0 C 0.01,-0.003 0.02,-0.007 0.029,-0.011"
             style="fill:none;stroke:#ffffff;stroke-width:0.80299997;stroke-linecap:round;stroke-linejoin:round;stroke-miterlimit:4;stroke-dasharray:none;stroke-opacity:1"
             id="path613"
             inkscape:connector-curvature="0" />
        </g>
        <g
           id="g615"
           transform="translate(321.8232,750.594)">
          <path
             d="M 0,0 C 0.006,-0.003 0.013,-0.008 0.022,-0.013"
             style="fill:none;stroke:#ffffff;stroke-width:0.80299997;stroke-linecap:round;stroke-linejoin:round;stroke-miterlimit:4;stroke-dasharray:none;stroke-opacity:1"
             id="path617"
             inkscape:connector-curvature="0" />
        </g>
        <g
           id="g619"
           transform="translate(323.228,750.0238)">
          <path
             d="M 0,0 C 1.383,-0.532 3.694,-1.401 6.567,-2.479"
             style="fill:none;stroke:#ffffff;stroke-width:0.80299997;stroke-linecap:round;stroke-linejoin:round;stroke-miterlimit:4;stroke-dasharray:0.058, 1.497;stroke-dashoffset:0;stroke-opacity:1"
             id="path621"
             inkscape:connector-curvature="0" />
        </g>
        <g
           id="g623"
           transform="translate(330.5079,747.2768)">
          <path
             d="M 0,0 C 0.01,-0.003 0.02,-0.007 0.029,-0.011"
             style="fill:none;stroke:#ffffff;stroke-width:0.80299997;stroke-linecap:round;stroke-linejoin:round;stroke-miterlimit:4;stroke-dasharray:none;stroke-opacity:1"
             id="path625"
             inkscape:connector-curvature="0" />
        </g>
        <g
           id="g627"
           transform="translate(340.1763,741.2137)">
          <path
             d="M 0,0 -14.101,-11.501 V 0.624 l 4.989,3.094 z"
             style="fill:#ffffff;fill-opacity:1;fill-rule:nonzero;stroke:none"
             id="path629"
             inkscape:connector-curvature="0" />
        </g>
        <g
           id="g631"
           transform="translate(338.1303,749.3108)">
          <path
             d="M 0,0 12.2,7.56 18.828,5.545 8.402,-2.929 Z"
             style="fill:#ffffff;fill-opacity:1;fill-rule:nonzero;stroke:none"
             id="path633"
             inkscape:connector-curvature="0" />
        </g>
        <path
           d="m 354.549,748.784 h 7.388 v -2.215 h -7.388 z"
           style="fill:#ffffff;fill-opacity:1;fill-rule:nonzero;stroke:none"
           id="path635"
           inkscape:connector-curvature="0" />
        <path
           d="m 357.132,751.37 h 2.22 v -7.388 h -2.22 z"
           style="fill:#ffffff;fill-opacity:1;fill-rule:nonzero;stroke:none"
           id="path637"
           inkscape:connector-curvature="0" />
        <g
           id="g639"
           transform="translate(383.6476,732.9816)">
          <path
             d="m 0,0 h -2.279 v 0.434 c 0,0.071 -0.051,0.122 -0.121,0.122 h -5.446 c -0.069,0 -0.121,-0.051 -0.121,-0.122 v -1.392 c 0,-0.069 0.052,-0.104 0.121,-0.104 H -2.4 c 1.338,0 2.4,-1.079 2.4,-2.401 v -1.391 c 0,-1.322 -1.062,-2.401 -2.4,-2.401 h -5.446 c -1.322,0 -2.401,1.079 -2.401,2.401 v 0.435 h 2.28 v -0.435 c 0,-0.07 0.052,-0.122 0.121,-0.122 H -2.4 c 0.07,0 0.121,0.052 0.121,0.122 v 1.391 c 0,0.07 -0.051,0.104 -0.121,0.104 h -5.446 c -1.322,0 -2.401,1.079 -2.401,2.401 v 1.392 c 0,1.322 1.079,2.401 2.401,2.401 H -2.4 C -1.062,2.835 0,1.756 0,0.434 Z"
             style="fill:#231f20;fill-opacity:1;fill-rule:nonzero;stroke:none"
             id="path641"
             inkscape:connector-curvature="0" />
        </g>
        <g
           id="g643"
           transform="translate(393.8247,733.4155)">
          <path
             d="M 0,0 C 0,0.07 -0.053,0.122 -0.122,0.122 H -5.567 C -5.637,0.122 -5.689,0.07 -5.689,0 v -5.288 c 0,-0.07 0.052,-0.122 0.122,-0.122 h 5.445 C -0.053,-5.41 0,-5.358 0,-5.288 Z m 2.279,0 v -5.288 c 0,-1.322 -1.079,-2.401 -2.401,-2.401 h -5.567 v -4.002 H -7.968 V 2.401 h 7.846 C 1.2,2.401 2.279,1.322 2.279,0"
             style="fill:#231f20;fill-opacity:1;fill-rule:nonzero;stroke:none"
             id="path645"
             inkscape:connector-curvature="0" />
        </g>
        <g
           id="g647"
           transform="translate(405.758,729.6232)">
          <path
             d="m 0,0 h -5.689 v -1.496 c 0,-0.07 0.052,-0.121 0.122,-0.121 H 0 Z m 2.279,3.793 v -7.691 h -7.846 c -1.322,0 -2.401,1.081 -2.401,2.402 V 2.297 H 0 v 1.496 c 0,0.069 -0.053,0.121 -0.122,0.121 h -7.846 v 2.28 h 7.846 c 1.323,0 2.401,-1.08 2.401,-2.401"
             style="fill:#231f20;fill-opacity:1;fill-rule:nonzero;stroke:none"
             id="path649"
             inkscape:connector-curvature="0" />
        </g>
        <g
           id="g651"
           transform="translate(420.0743,728.0059)">
          <path
             d="m 0,0 v -2.28 h -7.846 c -1.321,0 -2.4,1.08 -2.4,2.402 V 5.41 c 0,1.322 1.079,2.401 2.4,2.401 h 7.811 V 5.532 H -7.846 C -7.915,5.532 -7.968,5.48 -7.968,5.41 V 0.122 C -7.968,0.051 -7.915,0 -7.846,0 Z"
             style="fill:#231f20;fill-opacity:1;fill-rule:nonzero;stroke:none"
             id="path653"
             inkscape:connector-curvature="0" />
        </g>
        <g
           id="g655"
           transform="translate(429.9033,731.9199)">
          <path
             d="m 0,0 v 1.496 c 0,0.07 -0.052,0.121 -0.122,0.121 h -5.445 c -0.069,0 -0.122,-0.051 -0.122,-0.121 V 0 Z m 2.279,1.496 v -3.793 h -7.968 v -1.496 c 0,-0.069 0.053,-0.121 0.122,-0.121 h 7.846 v -2.28 h -7.846 c -1.322,0 -2.4,1.08 -2.4,2.401 v 5.289 c 0,1.321 1.078,2.401 2.4,2.401 h 5.445 c 1.322,0 2.401,-1.08 2.401,-2.401"
             style="fill:#231f20;fill-opacity:1;fill-rule:nonzero;stroke:none"
             id="path657"
             inkscape:connector-curvature="0" />
        </g>
        <g
           id="g659"
           transform="translate(441.3835,735.5398)">
          <path
             d="m 0,0 c -1.107,0 -2.009,-0.9 -2.009,-2.009 v -5.894 c 0,-1.108 0.902,-2.01 2.009,-2.01 h 8.088 v 1.221 H 0 c -0.434,0 -0.788,0.355 -0.788,0.789 v 5.894 c 0,0.436 0.354,0.79 0.788,0.79 H 8.052 V 0 Z"
             style="fill:#231f20;fill-opacity:1;fill-rule:nonzero;stroke:none"
             id="path661"
             inkscape:connector-curvature="0" />
        </g>
        <g
           id="g663"
           transform="translate(453.1259,733.5302)">
          <path
             d="m 0,0 c 0,0.437 0.353,0.79 0.789,0.79 h 6.077 c 0.437,0 0.79,-0.353 0.79,-0.79 v -1.951 c 0,-0.213 -0.173,-0.383 -0.384,-0.383 H 0.383 C 0.172,-2.334 0,-2.164 0,-1.951 Z M 0.383,-3.557 H 8.877 V 0 c 0,1.109 -0.902,2.009 -2.011,2.009 H 0.789 c -1.109,0 -2.01,-0.9 -2.01,-2.009 v -5.893 c 0,-1.108 0.901,-2.01 2.01,-2.01 h 8.088 v 1.221 H 0.789 C 0.353,-6.682 0,-6.328 0,-5.893 v 1.952 c 0,0.213 0.172,0.384 0.383,0.384"
             style="fill:#231f20;fill-opacity:1;fill-rule:nonzero;stroke:none"
             id="path665"
             inkscape:connector-curvature="0" />
        </g>
        <g
           id="g667"
           transform="translate(473.5865,725.6271)">
          <path
             d="m 0,0 h 1.221 v 7.903 c 0,1.109 -0.901,2.01 -2.01,2.01 H -8.877 V 0 h 1.221 v 7.903 c 0,0.437 0.354,0.791 0.79,0.791 h 6.077 C -0.353,8.694 0,8.34 0,7.903 Z"
             style="fill:#231f20;fill-opacity:1;fill-rule:nonzero;stroke:none"
             id="path669"
             inkscape:connector-curvature="0" />
        </g>
        <g
           id="g671"
           transform="translate(477.5172,739.0403)">
          <path
             d="m 0,0 v -11.403 c 0,-1.108 0.901,-2.011 2.009,-2.011 h 3.594 v 1.221 H 2.009 c -0.435,0 -0.787,0.356 -0.787,0.79 v 6.3 c 0,0.212 0.171,0.384 0.383,0.384 H 5.603 V -3.5 H 1.605 c -0.212,0 -0.383,0.173 -0.383,0.384 V 0 Z"
             style="fill:#231f20;fill-opacity:1;fill-rule:nonzero;stroke:none"
             id="path673"
             inkscape:connector-curvature="0" />
        </g>
        <g
           id="g675"
           transform="translate(486.2549,733.5302)">
          <path
             d="M 0,0 C 0,0.437 0.354,0.79 0.79,0.79 H 6.868 C 7.303,0.79 7.657,0.437 7.657,0 v -1.951 c 0,-0.213 -0.171,-0.383 -0.384,-0.383 H 0.384 C 0.173,-2.334 0,-2.164 0,-1.951 Z M 0.384,-3.557 H 8.877 V 0 c 0,1.109 -0.901,2.009 -2.009,2.009 H 0.79 c -1.108,0 -2.01,-0.9 -2.01,-2.009 v -5.893 c 0,-1.108 0.902,-2.01 2.01,-2.01 h 8.087 v 1.221 H 0.79 C 0.354,-6.682 0,-6.328 0,-5.893 v 1.952 c 0,0.213 0.173,0.384 0.384,0.384"
             style="fill:#231f20;fill-opacity:1;fill-rule:nonzero;stroke:none"
             id="path677"
             inkscape:connector-curvature="0" />
        </g>
        <g
           id="g679"
           transform="translate(497.4357,725.6271)">
          <path
             d="m 0,0 h 1.222 v 7.903 c 0,0.437 0.354,0.791 0.787,0.791 H 7.594 V 9.913 H 2.009 C 0.901,9.913 0,9.012 0,7.903 Z"
             style="fill:#231f20;fill-opacity:1;fill-rule:nonzero;stroke:none"
             id="path681"
             inkscape:connector-curvature="0" />
        </g>
        <g
           id="g683"
           transform="translate(373.3619,743.7828)">
          <path
             d="M 0,0 V -0.023 C 0,-1.13 0.901,-2.032 2.01,-2.032 h 6.078 c 1.109,0 2.009,0.902 2.009,2.009 v 1.546 c 0,1.111 -0.9,2.013 -2.009,2.013 H 2.01 c -0.434,0 -0.788,0.354 -0.788,0.789 v 1.547 c 0,0.435 0.354,0.789 0.788,0.789 h 6.078 c 0.435,0 0.789,-0.354 0.789,-0.789 V 5.851 l 1.22,0.021 c 0,1.107 -0.9,2.01 -2.009,2.01 H 2.01 C 0.901,7.882 0,6.979 0,5.872 V 4.325 C 0,3.216 0.901,2.315 2.01,2.315 h 6.078 c 0.435,0 0.789,-0.354 0.789,-0.792 v -1.546 c 0,-0.434 -0.354,-0.788 -0.789,-0.788 H 2.01 c -0.434,0 -0.788,0.354 -0.788,0.788 V 0 Z"
             style="fill:#231f20;fill-opacity:1;fill-rule:nonzero;stroke:none"
             id="path685"
             inkscape:connector-curvature="0" />
        </g>
        <g
           id="g687"
           transform="translate(398.4268,741.7504)">
          <path
             d="M 0,0 H 1.107 L 4.833,9.914 H 3.534 L 0.921,3.07 C 0.865,2.926 0.728,2.828 0.575,2.824 0.431,2.824 0.278,2.906 0.214,3.046 L -2.944,9.914 H -4.71 L -7.686,3.055 C -7.748,2.914 -7.841,2.832 -8.043,2.824 -8.197,2.825 -8.336,2.919 -8.394,3.062 l -2.793,6.852 h -1.297 L -8.587,0 h 1.105 l 3.29,7.704 c 0.061,0.14 0.196,0.231 0.348,0.232 h 0.005 c 0.149,0 0.288,-0.087 0.35,-0.226 z"
             style="fill:#231f20;fill-opacity:1;fill-rule:nonzero;stroke:none"
             id="path689"
             inkscape:connector-curvature="0" />
        </g>
        <path
           d="m 405.608,741.75 h 1.221 v 9.914 h -1.221 z"
           style="fill:#231f20;fill-opacity:1;fill-rule:nonzero;stroke:none"
           id="path691"
           inkscape:connector-curvature="0" />
        <path
           d="m 405.608,753.942 h 1.221 v 1.221 h -1.221 z"
           style="fill:#231f20;fill-opacity:1;fill-rule:nonzero;stroke:none"
           id="path693"
           inkscape:connector-curvature="0" />
        <g
           id="g695"
           transform="translate(409.3676,743.7828)">
          <path
             d="M 0,0 V -0.023 C 0,-1.13 0.9,-2.032 2.01,-2.032 h 6.078 c 1.107,0 2.009,0.902 2.009,2.009 v 1.546 c 0,1.111 -0.902,2.013 -2.009,2.013 H 2.01 c -0.436,0 -0.789,0.354 -0.789,0.789 v 1.547 c 0,0.435 0.353,0.789 0.789,0.789 h 6.078 c 0.434,0 0.789,-0.354 0.789,-0.789 V 5.851 l 1.22,0.021 c 0,1.107 -0.902,2.01 -2.009,2.01 H 2.01 C 0.9,7.882 0,6.979 0,5.872 V 4.325 C 0,3.216 0.9,2.315 2.01,2.315 h 6.078 c 0.434,0 0.789,-0.354 0.789,-0.792 v -1.546 c 0,-0.434 -0.355,-0.788 -0.789,-0.788 H 2.01 c -0.436,0 -0.789,0.354 -0.789,0.788 V 0 Z"
             style="fill:#231f20;fill-opacity:1;fill-rule:nonzero;stroke:none"
             id="path697"
             inkscape:connector-curvature="0" />
        </g>
        <g
           id="g699"
           transform="translate(422.0073,743.7828)">
          <path
             d="M 0,0 V -0.023 C 0,-1.13 0.902,-2.032 2.01,-2.032 h 6.078 c 1.109,0 2.011,0.902 2.011,2.009 v 1.546 c 0,1.111 -0.902,2.013 -2.011,2.013 H 2.01 c -0.435,0 -0.788,0.354 -0.788,0.789 v 1.547 c 0,0.435 0.353,0.789 0.788,0.789 h 6.078 c 0.436,0 0.789,-0.354 0.789,-0.789 V 5.851 l 1.222,0.021 c 0,1.107 -0.902,2.01 -2.011,2.01 H 2.01 C 0.902,7.882 0,6.979 0,5.872 V 4.325 C 0,3.216 0.902,2.315 2.01,2.315 h 6.078 c 0.436,0 0.789,-0.354 0.789,-0.792 v -1.546 c 0,-0.434 -0.353,-0.788 -0.789,-0.788 H 2.01 c -0.435,0 -0.788,0.354 -0.788,0.788 V 0 Z"
             style="fill:#231f20;fill-opacity:1;fill-rule:nonzero;stroke:none"
             id="path701"
             inkscape:connector-curvature="0" />
        </g>
      </g>
    </g>
  </g>
</svg>
