<?xml version="1.0" encoding="UTF-8" standalone="no"?>
<!-- Created with Inkscape (http://www.inkscape.org/) -->

<svg
   xmlns:dc="http://purl.org/dc/elements/1.1/"
   xmlns:cc="http://creativecommons.org/ns#"
   xmlns:rdf="http://www.w3.org/1999/02/22-rdf-syntax-ns#"
   xmlns:svg="http://www.w3.org/2000/svg"
   xmlns="http://www.w3.org/2000/svg"
   xmlns:sodipodi="http://sodipodi.sourceforge.net/DTD/sodipodi-0.dtd"
   xmlns:inkscape="http://www.inkscape.org/namespaces/inkscape"
   width="87.60302mm"
   height="18.025957mm"
   viewBox="0 0 87.60302 18.025957"
   version="1.1"
   id="svg451"
   inkscape:version="0.92.3 (2405546, 2018-03-11)"
   sodipodi:docname="swiss_space_center_white_font.svg">
  <defs
     id="defs445">
    <clipPath
       clipPathUnits="userSpaceOnUse"
       id="clipPath213">
      <path
         d="m 249.449,687.89 h 249.815 v 51.098 H 249.449 Z"
         id="path211"
         inkscape:connector-curvature="0" />
    </clipPath>
  </defs>
  <sodipodi:namedview
     id="base"
     pagecolor="#ffffff"
     bordercolor="#666666"
     borderopacity="1.0"
     inkscape:pageopacity="0.0"
     inkscape:pageshadow="2"
     inkscape:zoom="0.35"
     inkscape:cx="-67.308133"
     inkscape:cy="-397.36377"
     inkscape:document-units="mm"
     inkscape:current-layer="layer1"
     showgrid="false"
     inkscape:window-width="1920"
     inkscape:window-height="1012"
     inkscape:window-x="-8"
     inkscape:window-y="-8"
     inkscape:window-maximized="1" />
  <metadata
     id="metadata448">
    <rdf:RDF>
      <cc:Work
         rdf:about="">
        <dc:format>image/svg+xml</dc:format>
        <dc:type
           rdf:resource="http://purl.org/dc/dcmitype/StillImage" />
        <dc:title></dc:title>
      </cc:Work>
    </rdf:RDF>
  </metadata>
  <g
     inkscape:label="Layer 1"
     inkscape:groupmode="layer"
     id="layer1"
     transform="translate(-10.627063,-25.671547)">
    <g
       transform="matrix(0.35277777,0,0,-0.35277777,-77.898809,286.36998)"
       id="g207">
      <g
         id="g209"
         clip-path="url(#clipPath213)">
        <g
           id="g215"
           transform="translate(307.9387,697.1727)">
          <path
             d="m 0,0 c 0,-4.891 -3.964,-8.856 -8.856,-8.856 h -32.961 c -4.888,0 -8.852,3.965 -8.852,8.856 v 32.96 c 0,4.891 3.964,8.855 8.852,8.855 H -8.856 C -3.964,41.815 0,37.851 0,32.96 Z"
             style="fill:#ed1c24;fill-opacity:1;fill-rule:nonzero;stroke:none"
             id="path217"
             inkscape:connector-curvature="0" />
        </g>
        <g
           id="g219"
           transform="translate(288.8339,719.8865)">
          <path
             d="m 0,0 -5.789,-4.963 0.037,-7.912 5.771,5.491 z"
             style="fill:#ffffff;fill-opacity:1;fill-rule:nonzero;stroke:none"
             id="path221"
             inkscape:connector-curvature="0" />
        </g>
        <g
           id="g223"
           transform="translate(284.0589,714.64)">
          <path
             d="M 0,0 C 0.013,-0.005 0.027,-0.009 0.039,-0.015"
             style="fill:none;stroke:#ffffff;stroke-width:1.08500004;stroke-linecap:round;stroke-linejoin:round;stroke-miterlimit:4;stroke-dasharray:none;stroke-opacity:1"
             id="path225"
             inkscape:connector-curvature="0" />
        </g>
        <g
           id="g227"
           transform="translate(286.0962,713.8818)">
          <path
             d="M 0,0 C 11.074,-4.12 12.095,-4.5 25.963,-9.64"
             style="fill:none;stroke:#ffffff;stroke-width:1.08500004;stroke-linecap:round;stroke-linejoin:round;stroke-miterlimit:4;stroke-dasharray:0.082, 2.13;stroke-dashoffset:0;stroke-opacity:1"
             id="path229"
             inkscape:connector-curvature="0" />
        </g>
        <g
           id="g231"
           transform="translate(313.0565,703.8711)">
          <path
             d="M 0,0 C 0.013,-0.004 0.027,-0.009 0.039,-0.015"
             style="fill:none;stroke:#ffffff;stroke-width:1.08500004;stroke-linecap:round;stroke-linejoin:round;stroke-miterlimit:4;stroke-dasharray:none;stroke-opacity:1"
             id="path233"
             inkscape:connector-curvature="0" />
        </g>
        <g
           id="g235"
           transform="translate(251.4887,726.9343)">
          <path
             d="M 0,0 C 0.007,-0.004 0.018,-0.01 0.03,-0.018"
             style="fill:none;stroke:#ffffff;stroke-width:1.08500004;stroke-linecap:round;stroke-linejoin:round;stroke-miterlimit:4;stroke-dasharray:none;stroke-opacity:1"
             id="path237"
             inkscape:connector-curvature="0" />
        </g>
        <g
           id="g239"
           transform="translate(253.3885,726.1631)">
          <path
             d="M 0,0 C 1.87,-0.72 4.996,-1.895 8.881,-3.352"
             style="fill:none;stroke:#ffffff;stroke-width:1.08500004;stroke-linecap:round;stroke-linejoin:round;stroke-miterlimit:4;stroke-dasharray:0.078, 2.024;stroke-dashoffset:0;stroke-opacity:1"
             id="path241"
             inkscape:connector-curvature="0" />
        </g>
        <g
           id="g243"
           transform="translate(263.2341,722.448)">
          <path
             d="M 0,0 C 0.013,-0.005 0.027,-0.009 0.039,-0.015"
             style="fill:none;stroke:#ffffff;stroke-width:1.08500004;stroke-linecap:round;stroke-linejoin:round;stroke-miterlimit:4;stroke-dasharray:none;stroke-opacity:1"
             id="path245"
             inkscape:connector-curvature="0" />
        </g>
        <g
           id="g247"
           transform="translate(276.31,714.2482)">
          <path
             d="M 0,0 -19.071,-15.554 V 0.844 l 6.748,4.185 z"
             style="fill:#ffffff;fill-opacity:1;fill-rule:nonzero;stroke:none"
             id="path249"
             inkscape:connector-curvature="0" />
        </g>
        <g
           id="g251"
           transform="translate(273.543,725.1989)">
          <path
             d="m 0,0 16.5,10.224 8.963,-2.725 -14.1,-11.46 z"
             style="fill:#ffffff;fill-opacity:1;fill-rule:nonzero;stroke:none"
             id="path253"
             inkscape:connector-curvature="0" />
        </g>
        <path
           d="m 295.748,724.487 h 9.992 v -2.996 h -9.992 z"
           style="fill:#ffffff;fill-opacity:1;fill-rule:nonzero;stroke:none"
           id="path255"
           inkscape:connector-curvature="0" />
        <path
           d="m 299.242,727.984 h 3.002 v -9.992 h -3.002 z"
           style="fill:#ffffff;fill-opacity:1;fill-rule:nonzero;stroke:none"
           id="path257"
           inkscape:connector-curvature="0" />
        <g
           id="g259"
           transform="translate(335.1021,703.1146)">
          <path
             d="m 0,0 h -3.083 v 0.587 c 0,0.096 -0.068,0.165 -0.163,0.165 h -7.366 c -0.093,0 -0.163,-0.069 -0.163,-0.165 v -1.882 c 0,-0.094 0.07,-0.141 0.163,-0.141 h 7.366 c 1.81,0 3.246,-1.46 3.246,-3.247 v -1.882 c 0,-1.788 -1.436,-3.247 -3.246,-3.247 h -7.366 c -1.787,0 -3.247,1.459 -3.247,3.247 v 0.588 h 3.084 v -0.588 c 0,-0.094 0.07,-0.165 0.163,-0.165 h 7.366 c 0.095,0 0.163,0.071 0.163,0.165 v 1.882 c 0,0.094 -0.068,0.141 -0.163,0.141 h -7.366 c -1.787,0 -3.247,1.458 -3.247,3.247 v 1.882 c 0,1.787 1.46,3.247 3.247,3.247 h 7.366 C -1.436,3.834 0,2.374 0,0.587 Z"
             style="fill:#ffffff;fill-opacity:1;fill-rule:nonzero;stroke:none"
             id="path261"
             inkscape:connector-curvature="0" />
        </g>
        <g
           id="g263"
           transform="translate(348.866,703.7015)">
          <path
             d="M 0,0 C 0,0.094 -0.072,0.165 -0.165,0.165 H -7.529 C -7.623,0.165 -7.694,0.094 -7.694,0 v -7.152 c 0,-0.094 0.071,-0.165 0.165,-0.165 h 7.364 c 0.093,0 0.165,0.071 0.165,0.165 z m 3.083,0 v -7.152 c 0,-1.787 -1.46,-3.247 -3.248,-3.247 h -7.529 v -5.412 h -3.082 V 3.247 H -0.165 C 1.623,3.247 3.083,1.788 3.083,0"
             style="fill:#ffffff;fill-opacity:1;fill-rule:nonzero;stroke:none"
             id="path265"
             inkscape:connector-curvature="0" />
        </g>
        <g
           id="g267"
           transform="translate(365.0049,698.5728)">
          <path
             d="m 0,0 h -7.694 v -2.023 c 0,-0.095 0.071,-0.164 0.165,-0.164 H 0 Z m 3.083,5.129 v -10.4 H -7.529 c -1.788,0 -3.247,1.461 -3.247,3.248 v 5.13 H 0 v 2.022 c 0,0.095 -0.072,0.165 -0.165,0.165 h -10.611 v 3.083 h 10.611 c 1.789,0 3.248,-1.46 3.248,-3.248"
             style="fill:#ffffff;fill-opacity:1;fill-rule:nonzero;stroke:none"
             id="path269"
             inkscape:connector-curvature="0" />
        </g>
        <g
           id="g271"
           transform="translate(384.3669,696.3854)">
          <path
             d="m 0,0 v -3.084 h -10.612 c -1.786,0 -3.246,1.461 -3.246,3.249 v 7.152 c 0,1.787 1.46,3.247 3.246,3.247 H -0.048 V 7.481 h -10.564 c -0.093,0 -0.164,-0.07 -0.164,-0.164 V 0.165 C -10.776,0.069 -10.705,0 -10.612,0 Z"
             style="fill:#ffffff;fill-opacity:1;fill-rule:nonzero;stroke:none"
             id="path273"
             inkscape:connector-curvature="0" />
        </g>
        <g
           id="g275"
           transform="translate(397.6599,701.6788)">
          <path
             d="m 0,0 v 2.023 c 0,0.095 -0.07,0.164 -0.165,0.164 h -7.364 c -0.093,0 -0.165,-0.069 -0.165,-0.164 V 0 Z m 3.083,2.023 v -5.13 H -7.694 v -2.022 c 0,-0.095 0.072,-0.165 0.165,-0.165 H 3.083 V -8.377 H -7.529 c -1.788,0 -3.246,1.46 -3.246,3.248 v 7.152 c 0,1.787 1.458,3.247 3.246,3.247 h 7.364 c 1.788,0 3.248,-1.46 3.248,-3.247"
             style="fill:#ffffff;fill-opacity:1;fill-rule:nonzero;stroke:none"
             id="path277"
             inkscape:connector-curvature="0" />
        </g>
        <g
           id="g279"
           transform="translate(413.1862,706.5745)">
          <path
             d="m 0,0 c -1.497,0 -2.717,-1.217 -2.717,-2.717 v -7.971 c 0,-1.499 1.22,-2.719 2.717,-2.719 h 10.938 v 1.651 H 0 c -0.587,0 -1.066,0.481 -1.066,1.068 v 7.971 c 0,0.59 0.479,1.069 1.066,1.069 H 10.89 V 0 Z"
             style="fill:#ffffff;fill-opacity:1;fill-rule:nonzero;stroke:none"
             id="path281"
             inkscape:connector-curvature="0" />
        </g>
        <g
           id="g283"
           transform="translate(429.067,703.8566)">
          <path
             d="m 0,0 c 0,0.591 0.478,1.069 1.067,1.069 h 8.218 c 0.592,0 1.069,-0.478 1.069,-1.069 v -2.638 c 0,-0.289 -0.233,-0.518 -0.519,-0.518 H 0.518 C 0.232,-3.156 0,-2.927 0,-2.638 Z M 0.518,-4.81 H 12.006 V 0 c 0,1.5 -1.221,2.717 -2.721,2.717 H 1.067 C -0.433,2.717 -1.651,1.5 -1.651,0 v -7.969 c 0,-1.499 1.218,-2.719 2.718,-2.719 h 10.939 v 1.651 H 1.067 C 0.478,-9.037 0,-8.558 0,-7.969 v 2.639 c 0,0.288 0.232,0.52 0.518,0.52"
             style="fill:#ffffff;fill-opacity:1;fill-rule:nonzero;stroke:none"
             id="path285"
             inkscape:connector-curvature="0" />
        </g>
        <g
           id="g287"
           transform="translate(456.7386,693.1682)">
          <path
             d="m 0,0 h 1.651 v 10.688 c 0,1.5 -1.218,2.719 -2.718,2.719 H -12.006 V 0 h 1.652 v 10.688 c 0,0.591 0.479,1.071 1.069,1.071 h 8.218 C -0.478,11.759 0,11.279 0,10.688 Z"
             style="fill:#ffffff;fill-opacity:1;fill-rule:nonzero;stroke:none"
             id="path289"
             inkscape:connector-curvature="0" />
        </g>
        <g
           id="g291"
           transform="translate(462.0546,711.3087)">
          <path
             d="m 0,0 v -15.422 c 0,-1.499 1.219,-2.719 2.717,-2.719 h 4.86 v 1.651 h -4.86 c -0.588,0 -1.064,0.481 -1.064,1.068 v 8.52 c 0,0.288 0.23,0.52 0.518,0.52 h 5.406 v 1.648 H 2.171 c -0.288,0 -0.518,0.235 -0.518,0.52 V 0 Z"
             style="fill:#ffffff;fill-opacity:1;fill-rule:nonzero;stroke:none"
             id="path293"
             inkscape:connector-curvature="0" />
        </g>
        <g
           id="g295"
           transform="translate(473.8718,703.8566)">
          <path
             d="m 0,0 c 0,0.591 0.479,1.069 1.069,1.069 h 8.219 c 0.589,0 1.068,-0.478 1.068,-1.069 v -2.638 c 0,-0.289 -0.232,-0.518 -0.52,-0.518 H 0.519 C 0.234,-3.156 0,-2.927 0,-2.638 Z M 0.519,-4.81 H 12.006 V 0 c 0,1.5 -1.219,2.717 -2.718,2.717 H 1.069 C -0.43,2.717 -1.65,1.5 -1.65,0 v -7.969 c 0,-1.499 1.22,-2.719 2.719,-2.719 h 10.937 v 1.651 H 1.069 C 0.479,-9.037 0,-8.558 0,-7.969 v 2.639 c 0,0.288 0.234,0.52 0.519,0.52"
             style="fill:#ffffff;fill-opacity:1;fill-rule:nonzero;stroke:none"
             id="path297"
             inkscape:connector-curvature="0" />
        </g>
        <g
           id="g299"
           transform="translate(488.993,693.1682)">
          <path
             d="m 0,0 h 1.653 v 10.688 c 0,0.591 0.479,1.071 1.064,1.071 h 7.553 v 1.648 H 2.717 C 1.219,13.407 0,12.188 0,10.688 Z"
             style="fill:#ffffff;fill-opacity:1;fill-rule:nonzero;stroke:none"
             id="path301"
             inkscape:connector-curvature="0" />
        </g>
        <g
           id="g303"
           transform="translate(321.1914,717.7227)">
          <path
             d="m 0,0 v -0.031 c 0,-1.498 1.219,-2.718 2.719,-2.718 h 8.219 c 1.5,0 2.717,1.22 2.717,2.718 V 2.06 c 0,1.502 -1.217,2.722 -2.717,2.722 H 2.719 c -0.587,0 -1.066,0.479 -1.066,1.067 v 2.092 c 0,0.588 0.479,1.067 1.066,1.067 h 8.219 c 0.588,0 1.068,-0.479 1.068,-1.067 V 7.912 l 1.649,0.029 c 0,1.497 -1.217,2.719 -2.717,2.719 H 2.719 C 1.219,10.66 0,9.438 0,7.941 V 5.849 C 0,4.349 1.219,3.131 2.719,3.131 h 8.219 c 0.588,0 1.068,-0.48 1.068,-1.071 v -2.091 c 0,-0.587 -0.48,-1.066 -1.068,-1.066 H 2.719 c -0.587,0 -1.066,0.479 -1.066,1.066 V 0 Z"
             style="fill:#ffffff;fill-opacity:1;fill-rule:nonzero;stroke:none"
             id="path305"
             inkscape:connector-curvature="0" />
        </g>
        <g
           id="g307"
           transform="translate(355.0899,714.9739)">
          <path
             d="m 0,0 h 1.497 l 5.04,13.408 H 4.779 L 1.246,4.152 C 1.169,3.957 0.985,3.825 0.777,3.819 0.582,3.819 0.376,3.93 0.289,4.12 l -4.27,9.288 H -6.37 l -4.025,-9.276 c -0.084,-0.192 -0.209,-0.302 -0.483,-0.313 -0.208,0.002 -0.395,0.129 -0.475,0.322 l -3.777,9.267 h -1.753 L -11.613,0 h 1.494 l 4.449,10.419 c 0.083,0.19 0.265,0.313 0.472,0.314 h 0.006 c 0.202,0 0.389,-0.118 0.473,-0.305 z"
             style="fill:#ffffff;fill-opacity:1;fill-rule:nonzero;stroke:none"
             id="path309"
             inkscape:connector-curvature="0" />
        </g>
        <path
           d="m 364.802,714.974 h 1.651 v 13.408 h -1.651 z"
           style="fill:#ffffff;fill-opacity:1;fill-rule:nonzero;stroke:none"
           id="path311"
           inkscape:connector-curvature="0" />
        <path
           d="m 364.802,731.462 h 1.651 v 1.651 h -1.651 z"
           style="fill:#ffffff;fill-opacity:1;fill-rule:nonzero;stroke:none"
           id="path313"
           inkscape:connector-curvature="0" />
        <g
           id="g315"
           transform="translate(369.8867,717.7227)">
          <path
             d="m 0,0 v -0.031 c 0,-1.498 1.217,-2.718 2.719,-2.718 h 8.219 c 1.497,0 2.717,1.22 2.717,2.718 V 2.06 c 0,1.502 -1.22,2.722 -2.717,2.722 H 2.719 c -0.59,0 -1.068,0.479 -1.068,1.067 v 2.092 c 0,0.588 0.478,1.067 1.068,1.067 h 8.219 c 0.587,0 1.068,-0.479 1.068,-1.067 V 7.912 l 1.649,0.029 c 0,1.497 -1.22,2.719 -2.717,2.719 H 2.719 C 1.217,10.66 0,9.438 0,7.941 V 5.849 C 0,4.349 1.217,3.131 2.719,3.131 h 8.219 c 0.587,0 1.068,-0.48 1.068,-1.071 v -2.091 c 0,-0.587 -0.481,-1.066 -1.068,-1.066 H 2.719 c -0.59,0 -1.068,0.479 -1.068,1.066 V 0 Z"
             style="fill:#ffffff;fill-opacity:1;fill-rule:nonzero;stroke:none"
             id="path317"
             inkscape:connector-curvature="0" />
        </g>
        <g
           id="g319"
           transform="translate(386.981,717.7227)">
          <path
             d="m 0,0 v -0.031 c 0,-1.498 1.22,-2.718 2.719,-2.718 h 8.219 c 1.5,0 2.72,1.22 2.72,2.718 V 2.06 c 0,1.502 -1.22,2.722 -2.72,2.722 H 2.719 c -0.589,0 -1.066,0.479 -1.066,1.067 v 2.092 c 0,0.588 0.477,1.067 1.066,1.067 h 8.219 c 0.59,0 1.068,-0.479 1.068,-1.067 V 7.912 l 1.652,0.029 c 0,1.497 -1.22,2.719 -2.72,2.719 H 2.719 C 1.22,10.66 0,9.438 0,7.941 V 5.849 C 0,4.349 1.22,3.131 2.719,3.131 h 8.219 c 0.59,0 1.068,-0.48 1.068,-1.071 v -2.091 c 0,-0.587 -0.478,-1.066 -1.068,-1.066 H 2.719 c -0.589,0 -1.066,0.479 -1.066,1.066 V 0 Z"
             style="fill:#ffffff;fill-opacity:1;fill-rule:nonzero;stroke:none"
             id="path321"
             inkscape:connector-curvature="0" />
        </g>
      </g>
    </g>
  </g>
</svg>
